# xmcd CD database file
#
# Track frame offsets:
#	150
#	6147
#	25960
#	45559
#	61493
#	65157
#	88848
#	109083
#	130926
#	152642
#	176182
#	192302
#	211486
#	217482
#	236935
#
# Disc length: 3382 seconds
#
# Revision: 2
# Processed by: cddbd v1.5.2PL0 Copyright (c) Steve Scherf et al.
# Submitted via: CDex 1.70beta2
#
DISCID=e90d340f
DTITLE=Slim - Love's Crazy
DYEAR=2008
DGENRE=R&B
TTITLE0=Intro Psalm
TTITLE1=She Got That
TTITLE2=Good Lovin' (Feat. Fabolous and Ryan Leslie)
TTITLE3=So Fly (Feat. Yung Joc)
TTITLE4=Baby Yu (Interlude)
TTITLE5=So Gone (Feat. Faith Evans)
TTITLE6=Sweet Baby
TTITLE7=Heels On (Feat. Yung Berg and Deezo)
TTITLE8=Bedtime Stories
TTITLE9=You Got Me (Addicted)
TTITLE10=Don't Say It
TTITLE11=Leave U Alone
TTITLE12=More (Interlude)
TTITLE13=Apologize
TTITLE14=Love's Crazy
EXTD=YEAR: 2008
EXTT0=
EXTT1=
EXTT2=
EXTT3=
EXTT4=
EXTT5=
EXTT6=
EXTT7=
EXTT8=
EXTT9=
EXTT10=
EXTT11=
EXTT12=
EXTT13=
EXTT14=
PLAYORDER=
